<?xml version="1.0" encoding="utf-8" standalone="no"?>
<!DOCTYPE svg PUBLIC "-//W3C//DTD SVG 1.1//EN"
  "http://www.w3.org/Graphics/SVG/1.1/DTD/svg11.dtd">
<!-- Created with matplotlib (https://matplotlib.org/) -->
<svg height="576pt" version="1.1" viewBox="0 0 576 576" width="576pt" xmlns="http://www.w3.org/2000/svg" xmlns:xlink="http://www.w3.org/1999/xlink">
 <defs>
  <style type="text/css">
*{stroke-linecap:butt;stroke-linejoin:round;}
  </style>
 </defs>
 <g id="figure_1">
  <g id="patch_1">
   <path d="M 0 576 
L 576 576 
L 576 0 
L 0 0 
z
" style="fill:none;"/>
  </g>
  <g id="axes_1">
   <g id="patch_2">
    <path clip-path="url(#p8dc06612e7)" d="M 451.754368 157.436533 
C 436.473928 137.647334 417.578963 120.933673 396.072635 108.182903 
C 374.566307 95.432133 350.836073 86.873972 326.141804 82.962784 
L 323.194966 101.56839 
C 345.252234 105.061918 366.461918 112.653609 385.726097 123.950478 
C 404.990275 135.247347 421.970707 150.051043 435.788397 167.595251 
L 423.906781 175.155204 
L 463.043598 192.801064 
L 463.639651 149.874248 
z
" style="fill:#026fdd;stroke:#026fdd;stroke-linejoin:miter;"/>
   </g>
   <g id="patch_3">
    <path clip-path="url(#p8dc06612e7)" d="M 458.546537 389.858145 
C 472.645268 369.210384 482.702039 346.0754 488.182921 321.681462 
C 493.663803 297.287524 494.470052 272.074112 490.558864 247.379844 
L 471.953258 250.326683 
C 475.446786 272.383951 474.780812 294.901521 469.98981 316.713767 
C 465.198808 338.526014 456.366898 359.249958 443.951265 377.812821 
L 433.089702 368.848886 
L 428.401433 411.523082 
L 469.411452 398.824846 
z
" style="fill:#df55d1;stroke:#df55d1;stroke-linejoin:miter;"/>
   </g>
   <g id="patch_4">
    <path clip-path="url(#p8dc06612e7)" d="M 239.599344 468.14011 
C 263.593279 475.168291 288.70367 477.583745 313.597369 475.258232 
C 338.491069 472.932719 362.719593 465.908135 384.996614 454.557426 
L 376.444555 437.773066 
C 356.546406 447.91168 334.925127 454.236612 312.699947 456.420453 
C 290.474766 458.604294 268.035914 456.6087 246.544941 450.536972 
L 251.713742 437.437003 
L 209.679415 446.165246 
L 234.428948 481.244121 
z
" style="fill:#83fbea;stroke:#83fbea;stroke-linejoin:miter;"/>
   </g>
   <g id="patch_5">
    <path clip-path="url(#p8dc06612e7)" d="M 97.490368 284.099412 
C 98.220704 309.090828 103.683008 333.718646 113.587279 356.675338 
C 123.491549 379.63203 137.659351 400.504009 155.338495 418.183153 
L 168.658638 404.86301 
C 152.867378 389.07175 140.170667 370.463203 131.225752 350.000644 
C 122.280837 329.538085 117.244774 307.580796 116.378254 285.265399 
L 130.434313 286.133108 
L 109.143939 248.853263 
L 83.429972 283.231436 
z
" style="fill:#e95151;stroke:#e95151;stroke-linejoin:miter;"/>
   </g>
   <g id="patch_6">
    <path clip-path="url(#p8dc06612e7)" d="M 228.609384 92.074042 
C 205.066821 100.491405 183.33232 113.296779 164.559796 129.810308 
C 145.787272 146.323837 130.314932 166.248013 118.964222 188.525035 
L 135.748582 197.077093 
C 145.887195 177.178944 159.661475 159.353297 176.358395 144.522899 
C 193.055314 129.692501 212.381708 118.117745 233.337142 110.397799 
L 236.855463 124.034042 
L 265.731615 92.265587 
L 225.089977 78.433591 
z
" style="fill:#099602;stroke:#099602;stroke-linejoin:miter;"/>
   </g>
  </g>
 </g>
 <defs>
  <clipPath id="p8dc06612e7">
   <rect height="443.52" width="436.098407" x="77.150796" y="69.12"/>
  </clipPath>
 </defs>
</svg>
