<?xml version="1.0" encoding="UTF-8" standalone="no"?>
<svg
   xmlns:dc="http://purl.org/dc/elements/1.1/"
   xmlns:cc="http://creativecommons.org/ns#"
   xmlns:rdf="http://www.w3.org/1999/02/22-rdf-syntax-ns#"
   xmlns:svg="http://www.w3.org/2000/svg"
   xmlns="http://www.w3.org/2000/svg"
   id="svg28"
   width="423.75pt"
   viewBox="0 0 423.75 423.75006"
   version="1.1"
   height="423.75006pt">
  <metadata
     id="metadata32">
    <rdf:RDF>
      <cc:Work
         rdf:about="">
        <dc:format>image/svg+xml</dc:format>
        <dc:type
           rdf:resource="http://purl.org/dc/dcmitype/StillImage" />
        <dc:title></dc:title>
      </cc:Work>
    </rdf:RDF>
  </metadata>
  <defs
     id="defs4">
    <style
       id="style2"
       type="text/css">
*{stroke-linecap:butt;stroke-linejoin:round;}
  </style>
    <clipPath
       id="clipPath260"
       clipPathUnits="userSpaceOnUse">
      <rect
         y="66.766502"
         x="83.338501"
         height="423.75006"
         width="423.75"
         id="rect262"
         style="fill:#000000;fill-opacity:0;stroke-width:0.70625" />
    </clipPath>
  </defs>
  <g
     transform="translate(-83.338501,-66.766502)"
     clip-path="url(#clipPath260)"
     id="figure_1">
    <g
       id="patch_1">
      <path
         id="path6"
         style="fill:none"
         d="M 0,576 H 576 V 0 H 0 Z" />
    </g>
    <g
       id="axes_1">
      <g
         id="patch_2">
        <path
           id="path9"
           style="fill:#404040;stroke:#404040;stroke-linejoin:miter"
           d="m 474.29425,323.22808 c -9.96126,39.95241 -33.01058,75.44526 -65.45732,100.79543 -32.44673,25.35017 -72.46143,39.12833 -113.63693,39.12833 -41.1755,0 -81.1902,-13.77816 -113.63693,-39.12833 C 149.11633,398.67334 126.067,363.18049 116.10575,323.22808 l 14.92452,-3.7211 c 8.25857,33.12331 26.3515,62.98435 51.8887,85.63846 25.5372,22.6541 57.34239,37.05779 91.21406,41.30831 33.87168,4.25053 68.24965,-1.84789 98.59257,-17.48966 30.34292,-15.64176 55.25312,-40.10638 71.43996,-70.16205 l -7.07503,-2.69321 z"
           clip-path="url(#p33f5b8419c)" />
      </g>
      <g
         id="patch_3">
        <path
           id="path12"
           style="stroke:#000000;stroke-linejoin:miter"
           d="m 117.27662,369.82522 c 18.56744,36.2035 47.74983,65.89178 83.62891,85.07863 35.87907,19.18686 76.77378,26.97332 117.19325,22.31392 40.41947,-4.6594 78.46992,-21.54635 109.04237,-48.39348 30.57246,-26.84712 52.23451,-62.39655 62.07762,-101.87511 l -14.92452,-3.7211 c -9.96126,39.95241 -33.01058,75.44526 -65.45732,100.79543 -32.44673,25.35017 -72.46143,39.12833 -113.63693,39.12833 -41.1755,0 -81.1902,-13.77816 -113.63693,-39.12833 C 149.11633,398.67334 126.067,363.18049 116.10575,323.22808 l -5.92165,49.297 z"
           clip-path="url(#p33f5b8419c)" />
      </g>
      <g
         id="patch_4">
        <path
           id="path15"
           style="fill:#404040;stroke:#404040;stroke-linejoin:miter"
           d="M 116.10575,233.92166 C 126.067,193.96925 149.11633,158.47639 181.56307,133.12623 214.0098,107.77606 254.0245,93.997894 295.2,93.997894 c 41.1755,0 81.1902,13.778166 113.63693,39.128336 32.44674,25.35016 55.49606,60.84302 65.45732,100.79543 l -14.92452,3.7211 c -8.25857,-33.12331 -26.3515,-62.98435 -51.8887,-85.63846 -25.53721,-22.65411 -57.34239,-37.05779 -91.21406,-41.30832 -33.87168,-4.25052 -68.24965,1.8479 -98.59257,17.48966 -30.34292,15.64177 -55.25312,40.10639 -71.43996,70.16206 l 7.07503,2.69321 z"
           clip-path="url(#p33f5b8419c)" />
      </g>
      <g
         id="patch_5">
        <path
           id="path18"
           style="stroke:#000000;stroke-linejoin:miter"
           d="M 473.12338,187.32452 C 454.55594,151.12102 425.37355,121.43274 389.49447,102.24589 353.6154,83.059032 312.72069,75.272566 272.30122,79.931964 231.88175,84.591363 193.8313,101.47832 163.25885,128.32544 132.68639,155.17257 111.02434,190.722 101.18123,230.20056 l 14.92452,3.7211 C 126.067,193.96925 149.11633,158.47639 181.56307,133.12623 214.0098,107.77606 254.0245,93.997894 295.2,93.997894 c 41.1755,0 81.1902,13.778166 113.63693,39.128336 32.44674,25.35016 55.49606,60.84302 65.45732,100.79543 l 5.92165,-49.29701 z"
           clip-path="url(#p33f5b8419c)" />
      </g>
    </g>
  </g>
  <defs
     id="defs26">
    <clipPath
       id="p33f5b8419c">
      <rect
         id="rect23"
         y="69.120003"
         x="95.028664"
         width="400.34268"
         height="443.51999" />
    </clipPath>
  </defs>
</svg>
