<?xml version="1.0" encoding="UTF-8" standalone="no"?>
<svg
   xmlns:dc="http://purl.org/dc/elements/1.1/"
   xmlns:cc="http://creativecommons.org/ns#"
   xmlns:rdf="http://www.w3.org/1999/02/22-rdf-syntax-ns#"
   xmlns:svg="http://www.w3.org/2000/svg"
   xmlns="http://www.w3.org/2000/svg"
   id="svg60"
   width="450pt"
   viewBox="0 0 450 450"
   version="1.1"
   height="450pt">
  <metadata
     id="metadata64">
    <rdf:RDF>
      <cc:Work
         rdf:about="">
        <dc:format>image/svg+xml</dc:format>
        <dc:type
           rdf:resource="http://purl.org/dc/dcmitype/StillImage" />
        <dc:title></dc:title>
      </cc:Work>
    </rdf:RDF>
  </metadata>
  <defs
     id="defs36">
    <style
       id="style34"
       type="text/css">
*{stroke-linecap:butt;stroke-linejoin:round;}
  </style>
    <clipPath
       id="clipPath172"
       clipPathUnits="userSpaceOnUse">
      <rect
         y="52.567795"
         x="69.710693"
         height="450"
         width="450"
         id="rect174"
         style="fill:#000000;fill-opacity:0;stroke-width:0.75" />
    </clipPath>
  </defs>
  <g
     transform="translate(-69.710693,-52.567795)"
     clip-path="url(#clipPath172)"
     id="figure_1">
    <g
       id="patch_1">
      <path
         id="path38"
         style="fill:none"
         d="M 0,576 H 576 V 0 H 0 Z" />
    </g>
    <g
       id="axes_1">
      <g
         id="patch_2">
        <path
           id="path41"
           style="fill:#404040;stroke:#404040;stroke-linejoin:miter"
           d="m 341.8042,91.117988 c 41.69801,10.396482 78.74162,34.452882 105.19939,68.317282 26.45777,33.8644 40.83793,75.62742 40.83793,118.60196 0,42.97454 -14.38016,84.73757 -40.83793,118.60196 -26.45777,33.8644 -63.50138,57.9208 -105.19939,68.31729 l -3.88368,-15.57661 c 34.57053,-8.6194 65.73626,-27.50285 89.38017,-54.15582 23.64392,-26.65298 38.67693,-59.84779 43.11317,-95.19939 4.43624,-35.3516 -1.92864,-71.23162 -18.25382,-102.90028 -16.32519,-31.66866 -41.85871,-57.66725 -73.22758,-74.56132 l -2.81088,7.38415 z"
           clip-path="url(#p54027b4fe5)" />
      </g>
      <g
         id="patch_3">
        <path
           id="path44"
           style="stroke:#000000;stroke-linejoin:miter"
           d="m 390.43727,463.73445 c 37.7853,-19.37869 68.77072,-49.83612 88.79589,-87.28283 20.02516,-37.4467 28.15184,-80.12818 23.28886,-122.31366 C 497.65904,211.95248 480.03426,172.23953 452.01413,140.3313 423.994,108.42307 386.89134,85.81456 345.68788,75.541384 l -3.88368,15.576604 c 41.69801,10.396482 78.74162,34.452882 105.19939,68.317282 26.45777,33.8644 40.83793,75.62742 40.83793,118.60196 0,42.97454 -14.38016,84.73757 -40.83793,118.60196 -26.45777,33.8644 -63.50138,57.9208 -105.19939,68.31729 l 51.45089,6.18038 z"
           clip-path="url(#p54027b4fe5)" />
      </g>
      <g
         id="patch_4">
        <path
           id="path47"
           style="fill:#404040;stroke:#404040;stroke-linejoin:miter"
           d="M 248.5958,464.95648 C 206.89779,454.55999 169.85418,430.50359 143.39641,396.63919 116.93864,362.7748 102.55848,321.01177 102.55848,278.03723 c 0,-42.97454 14.38016,-84.73756 40.83793,-118.60196 26.45777,-33.8644 63.50138,-57.9208 105.19939,-68.317282 l 3.88368,15.576602 c -34.57053,8.6194 -65.73626,27.50285 -89.38017,54.15583 -23.64392,26.65297 -38.67693,59.84779 -43.11317,95.19939 -4.43624,35.3516 1.92864,71.23161 18.25382,102.90027 16.32519,31.66866 41.85871,57.66725 73.22758,74.56133 l 2.81088,-7.38416 z"
           clip-path="url(#p54027b4fe5)" />
      </g>
      <g
         id="patch_5">
        <path
           id="path50"
           style="stroke:#000000;stroke-linejoin:miter"
           d="m 199.96273,92.340011 c -37.7853,19.378689 -68.77072,49.836129 -88.79589,87.282829 -20.025164,37.44671 -28.151837,80.12819 -23.288859,122.31366 4.862977,42.18548 22.487759,81.89843 50.507889,113.80666 28.02013,31.90824 65.12279,54.51674 106.32624,64.78992 l 3.88369,-15.5766 C 206.89779,454.55999 169.85418,430.50359 143.39641,396.63919 116.93864,362.7748 102.55848,321.01177 102.55848,278.03723 c 0,-42.97454 14.38016,-84.73756 40.83793,-118.60196 26.45777,-33.8644 63.50138,-57.9208 105.19939,-68.317282 l -51.45089,-6.180383 z"
           clip-path="url(#p54027b4fe5)" />
      </g>
    </g>
  </g>
  <defs
     id="defs58">
    <clipPath
       id="p54027b4fe5">
      <rect
         id="rect55"
         y="69.120003"
         x="76.59362"
         width="437.21277"
         height="443.51999" />
    </clipPath>
  </defs>
</svg>
