<?xml version="1.0" encoding="utf-8" standalone="no"?>
<!DOCTYPE svg PUBLIC "-//W3C//DTD SVG 1.1//EN"
  "http://www.w3.org/Graphics/SVG/1.1/DTD/svg11.dtd">
<!-- Created with matplotlib (https://matplotlib.org/) -->
<svg height="576pt" version="1.1" viewBox="0 0 576 576" width="576pt" xmlns="http://www.w3.org/2000/svg" xmlns:xlink="http://www.w3.org/1999/xlink">
 <defs>
  <style type="text/css">
*{stroke-linecap:butt;stroke-linejoin:round;}
  </style>
 </defs>
 <g id="figure_1">
  <g id="patch_1">
   <path d="M 0 576 
L 576 576 
L 576 0 
L 0 0 
z
" style="fill:#ffffff;"/>
  </g>
  <g id="axes_1">
   <g id="patch_2">
    <path clip-path="url(#p2f46d23c7c)" d="M 292.839401 156.513908 
C 275.824423 156.808989 259.017334 160.291817 243.302262 166.77918 
C 227.58719 173.266543 213.244615 182.642656 201.029018 194.414293 
C 188.813422 206.18593 178.942826 220.142994 171.936468 235.551281 
C 164.93011 250.959569 160.913038 267.544076 160.096566 284.432384 
C 159.280095 301.320693 161.678798 318.211384 167.166491 334.215932 
C 172.654185 350.22048 181.132927 365.053239 192.156697 377.933941 
C 203.180467 390.814643 216.552516 401.513396 231.569415 409.467398 
C 246.586314 417.4214 262.980045 422.488689 279.888224 424.402704 
C 296.796403 426.316719 313.917257 425.043299 330.350154 420.649431 
C 346.78305 416.255563 362.234698 408.819668 375.892273 398.732908 
C 389.549847 388.646147 401.169591 376.088547 410.140253 361.720693 
C 419.110916 347.352838 425.272391 331.431164 428.300558 314.793221 
C 431.328724 298.155278 431.169537 281.098015 427.831369 264.518722 
C 424.493201 247.939429 418.035632 232.134008 408.798357 217.933894 
C 399.561083 203.733781 387.708969 191.392415 373.865489 181.559008 
C 360.022009 171.725601 344.434238 164.575657 327.922162 160.485295 
" style="fill:none;stroke:#000000;stroke-linejoin:miter;stroke-width:2.868;"/>
   </g>
   <g id="patch_3">
    <path clip-path="url(#p2f46d23c7c)" d="M 292.862774 157.844265 
C 276.01626 158.136425 259.375578 161.58477 243.816101 168.007901 
C 228.256624 174.431033 214.056054 183.714313 201.961404 195.369399 
C 189.866755 207.024485 180.093887 220.84336 173.156899 236.09909 
C 166.219911 251.35482 162.242611 267.775125 161.434224 284.496222 
C 160.625837 301.21732 163.00079 317.940776 168.43415 333.786863 
C 173.86751 349.63295 182.262303 364.318851 193.176928 377.072021 
C 204.091552 389.825191 217.331204 400.418016 232.199421 408.293265 
C 247.067638 416.168514 263.299054 421.185632 280.039826 423.080697 
C 296.780597 424.975761 313.731938 423.714949 330.002132 419.364585 
C 346.272327 415.014221 361.570988 407.651949 375.093339 397.665057 
C 388.61569 387.678165 400.120387 375.244898 409.002231 361.0193 
C 417.884075 346.793701 423.984545 331.029668 426.98273 314.556456 
C 429.980915 298.083245 429.823304 281.194867 426.518187 264.779725 
C 423.21307 248.364583 416.819437 232.715651 407.673621 218.656133 
C 398.527805 204.596614 386.793039 192.377441 373.086623 182.641394 
C 359.380207 172.905348 343.94677 165.826195 327.59818 161.776332 
" style="fill:none;"/>
   </g>
   <g id="patch_4">
    <path clip-path="url(#p2f46d23c7c)" d="M 292.862774 157.844265 
L 292.769285 152.522836 
L 275.985949 153.82488 
z
" style="fill:#ffffff;stroke:#ffffff;stroke-linejoin:miter;"/>
   </g>
   <g id="patch_5">
    <path clip-path="url(#p2f46d23c7c)" d="M 292.862774 157.844265 
L 276.35545 156.460556 
L 275.985949 153.82488 
z
" style="stroke:#000000;stroke-linejoin:miter;"/>
   </g>
   <g id="patch_6">
    <path clip-path="url(#p2f46d23c7c)" d="M 292.886146 159.174622 
C 276.208098 159.463861 259.733822 162.877722 244.32994 169.236622 
C 228.926058 175.595523 214.867494 184.78597 202.89379 196.324505 
C 190.920087 207.86304 181.244949 221.543727 174.37733 236.646899 
C 167.509712 251.750072 163.572185 268.006173 162.771882 284.56006 
C 161.971578 301.113946 164.322782 317.670168 169.701808 333.357794 
C 175.080835 349.045421 183.39168 363.584462 194.197158 376.210101 
C 205.002636 388.835739 218.109892 399.322636 232.829427 407.119133 
C 247.548962 414.915629 263.618064 419.882576 280.191427 421.75869 
C 296.764791 423.634804 313.546618 422.3866 329.654111 418.079739 
C 345.761603 413.772878 360.907278 406.484229 374.294406 396.597206 
C 387.681533 386.710184 399.071183 374.401249 407.864208 360.317907 
C 416.657234 346.234564 422.6967 330.628171 425.664903 314.319692 
C 428.633106 298.011213 428.477071 281.291718 425.205005 265.040728 
C 421.93294 248.789737 415.603243 233.297295 406.548885 219.378371 
C 397.494527 205.459448 385.877108 193.362466 372.307757 183.72378 
C 358.738405 174.085094 343.459303 167.076733 327.274198 163.067369 
" style="fill:none;stroke:#000000;stroke-linejoin:miter;stroke-width:2.868;"/>
   </g>
   <g id="patch_7">
    <path clip-path="url(#p2f46d23c7c)" d="M 292.862774 157.844265 
L 292.956263 163.165694 
L 277.463953 164.367582 
z
" style="fill:#ffffff;stroke:#ffffff;stroke-linejoin:miter;"/>
   </g>
   <g id="patch_8">
    <path clip-path="url(#p2f46d23c7c)" d="M 292.862774 157.844265 
L 276.35545 156.460556 
L 277.463953 164.367582 
z
" style="stroke:#000000;stroke-linejoin:miter;"/>
   </g>
  </g>
 </g>
 <defs>
  <clipPath id="p2f46d23c7c">
   <rect height="443.52" width="446.4" x="72" y="69.12"/>
  </clipPath>
 </defs>
</svg>
