<?xml version="1.0" encoding="utf-8" standalone="no"?>
<!DOCTYPE svg PUBLIC "-//W3C//DTD SVG 1.1//EN"
  "http://www.w3.org/Graphics/SVG/1.1/DTD/svg11.dtd">
<!-- Created with matplotlib (https://matplotlib.org/) -->
<svg height="576pt" version="1.1" viewBox="0 0 576 576" width="576pt" xmlns="http://www.w3.org/2000/svg" xmlns:xlink="http://www.w3.org/1999/xlink">
 <defs>
  <style type="text/css">
*{stroke-linecap:butt;stroke-linejoin:round;}
  </style>
 </defs>
 <g id="figure_1">
  <g id="patch_1">
   <path d="M 0 576 
L 576 576 
L 576 0 
L 0 0 
z
" style="fill:#ffffff;"/>
  </g>
  <g id="axes_1">
   <g id="patch_2">
    <path clip-path="url(#p8b01d28e40)" d="M 292.742991 151.026184 
C 275.033094 151.333317 257.539577 154.958389 241.182676 161.710706 
C 224.825776 168.463023 209.897427 178.222071 197.182926 190.47448 
C 184.468426 202.72689 174.194699 217.253982 166.90219 233.291569 
C 159.609681 249.329155 155.428545 266.591 154.578728 284.169054 
C 153.728911 301.747107 156.22558 319.327641 161.9374 335.98584 
C 167.64922 352.644039 176.474247 368.082592 187.948245 381.489362 
C 199.422244 394.896132 213.340429 406.031839 228.970642 414.310695 
C 244.600854 422.589551 261.664131 427.863796 279.262867 429.855983 
C 296.861603 431.848169 314.6817 430.52274 331.785742 425.94942 
C 348.889783 421.376099 364.972501 413.636511 379.187873 403.137791 
C 393.403244 392.639071 405.497557 379.568599 414.834595 364.613939 
C 424.171634 349.659279 430.584753 333.087338 433.736595 315.769875 
C 436.888437 298.452412 436.722748 280.698504 433.248244 263.442086 
C 429.77374 246.185668 423.052433 229.734728 413.437894 214.95466 
C 403.823355 200.174591 391.487182 187.329184 377.078312 177.094166 
C 362.669442 166.859147 346.445042 159.417188 329.258587 155.159769 
" style="fill:none;stroke:#000000;stroke-linejoin:miter;stroke-width:14.6985;"/>
   </g>
   <g id="patch_3">
    <path clip-path="url(#p8b01d28e40)" d="M 292.862774 157.844265 
C 276.01626 158.136425 259.375578 161.58477 243.816101 168.007901 
C 228.256624 174.431033 214.056054 183.714313 201.961404 195.369399 
C 189.866755 207.024485 180.093887 220.84336 173.156899 236.09909 
C 166.219911 251.35482 162.242611 267.775125 161.434224 284.496222 
C 160.625837 301.21732 163.00079 317.940776 168.43415 333.786863 
C 173.86751 349.63295 182.262303 364.318851 193.176928 377.072021 
C 204.091552 389.825191 217.331204 400.418016 232.199421 408.293265 
C 247.067638 416.168514 263.299054 421.185632 280.039826 423.080697 
C 296.780597 424.975761 313.731938 423.714949 330.002132 419.364585 
C 346.272327 415.014221 361.570988 407.651949 375.093339 397.665057 
C 388.61569 387.678165 400.120387 375.244898 409.002231 361.0193 
C 417.884075 346.793701 423.984545 331.029668 426.98273 314.556456 
C 429.980915 298.083245 429.823304 281.194867 426.518187 264.779725 
C 423.21307 248.364583 416.819437 232.715651 407.673621 218.656133 
C 398.527805 204.596614 386.793039 192.377441 373.086623 182.641394 
C 359.380207 172.905348 343.94677 165.826195 327.59818 161.776332 
" style="fill:none;"/>
   </g>
   <g id="patch_4">
    <path clip-path="url(#p8b01d28e40)" d="M 292.862774 157.844265 
L 292.383642 130.571939 
L 259.229394 134.581372 
z
" style="fill:#ffffff;stroke:#ffffff;stroke-linejoin:miter;"/>
   </g>
   <g id="patch_5">
    <path clip-path="url(#p8b01d28e40)" d="M 292.862774 157.844265 
L 262.289135 147.876484 
L 259.229394 134.581372 
z
" style="stroke:#000000;stroke-linejoin:miter;"/>
   </g>
   <g id="patch_6">
    <path clip-path="url(#p8b01d28e40)" d="M 292.982557 164.662346 
C 276.999427 164.939533 261.21158 168.21115 246.449526 174.305096 
C 231.687472 180.399042 218.214681 189.206554 206.739882 200.264317 
C 195.265083 211.32208 185.993076 224.432738 179.411608 238.906612 
C 172.830141 253.380486 169.056678 268.95925 168.28972 284.823391 
C 167.522763 300.687532 169.775999 316.553911 174.9309 331.587886 
C 180.0858 346.621861 188.05036 360.555109 198.40561 372.65468 
C 208.76086 384.75425 221.32198 394.804193 235.428201 402.275835 
C 249.534422 409.747478 264.933978 414.507469 280.816785 416.305411 
C 296.699591 418.103353 312.782176 416.907158 328.218523 412.77975 
C 343.65487 408.652342 358.169475 401.667386 370.998806 392.192323 
C 383.828136 382.717259 394.743217 370.921197 403.169866 357.424661 
C 411.596516 343.928124 417.384337 328.971997 420.228865 313.343038 
C 423.073393 297.714079 422.923859 281.69123 419.78813 266.117364 
C 416.6524 250.543498 410.586441 235.696574 401.909348 222.357606 
C 393.232255 209.018638 382.098896 197.425697 369.094933 188.188623 
C 356.090971 178.951549 341.448498 172.235203 325.937774 168.392895 
" style="fill:none;stroke:#000000;stroke-linejoin:miter;stroke-width:14.6985;"/>
   </g>
   <g id="patch_7">
    <path clip-path="url(#p8b01d28e40)" d="M 292.862774 157.844265 
L 293.341905 185.116591 
L 271.468356 187.761818 
z
" style="fill:#ffffff;stroke:#ffffff;stroke-linejoin:miter;"/>
   </g>
   <g id="patch_8">
    <path clip-path="url(#p8b01d28e40)" d="M 292.862774 157.844265 
L 262.289135 147.876484 
L 271.468356 187.761818 
z
" style="stroke:#000000;stroke-linejoin:miter;"/>
   </g>
  </g>
 </g>
 <defs>
  <clipPath id="p8b01d28e40">
   <rect height="443.52" width="446.4" x="72" y="69.12"/>
  </clipPath>
 </defs>
</svg>
