<?xml version="1.0" encoding="UTF-8" standalone="no"?>
<svg
   xmlns:dc="http://purl.org/dc/elements/1.1/"
   xmlns:cc="http://creativecommons.org/ns#"
   xmlns:rdf="http://www.w3.org/1999/02/22-rdf-syntax-ns#"
   xmlns:svg="http://www.w3.org/2000/svg"
   xmlns="http://www.w3.org/2000/svg"
   id="svg64"
   width="455.17499pt"
   viewBox="0 0 455.17499 273.10498"
   version="1.1"
   height="273.10498pt">
  <metadata
     id="metadata68">
    <rdf:RDF>
      <cc:Work
         rdf:about="">
        <dc:format>image/svg+xml</dc:format>
        <dc:type
           rdf:resource="http://purl.org/dc/dcmitype/StillImage" />
        <dc:title></dc:title>
      </cc:Work>
    </rdf:RDF>
  </metadata>
  <defs
     id="defs4">
    <style
       id="style2"
       type="text/css">
*{stroke-linecap:butt;stroke-linejoin:round;}
  </style>
    <clipPath
       id="clipPath232"
       clipPathUnits="userSpaceOnUse">
      <rect
         y="149.62512"
         x="67.283676"
         height="273.10498"
         width="455.17499"
         id="rect234"
         style="fill:#000000;fill-opacity:0;stroke-width:0.91035" />
    </clipPath>
  </defs>
  <g
     transform="translate(-67.283676,-149.62512)"
     clip-path="url(#clipPath232)"
     id="figure_1">
    <g
       id="patch_1">
      <path
         id="path6"
         style="fill:none"
         d="M 0,576 H 576 V 0 H 0 Z" />
    </g>
    <g
       id="axes_1">
      <g
         id="patch_2">
        <path
           id="path9"
           style="fill:#404040;stroke:#404040;stroke-linejoin:miter"
           d="m 189.62795,197.05636 c 16.71647,3.70595 32.03249,12.1086 44.13981,24.21593 12.10733,12.10732 20.50998,27.42334 24.21594,44.13982 l -7.31887,1.62255 c -2.96632,-13.38018 -9.222,-25.81217 -18.1993,-36.16767 -8.97731,-10.35549 -20.39618,-18.31145 -33.22027,-23.14581 l -1.05294,3.57757 z"
           clip-path="url(#pba31f2b3f1)" />
      </g>
      <g
         id="patch_3">
        <path
           id="path12"
           style="stroke:#000000;stroke-linejoin:miter"
           d="m 261.73561,251.55172 c -5.60409,-15.39746 -15.00198,-29.13573 -27.32127,-39.93954 -12.3193,-10.80382 -27.16666,-18.3282 -43.16384,-21.87469 l -1.62255,7.31887 c 16.71647,3.70595 32.03249,12.1086 44.13981,24.21593 12.10733,12.10732 20.50998,27.42334 24.21594,44.13982 l 7.33228,-14.91415 z"
           clip-path="url(#pba31f2b3f1)" />
      </g>
      <g
         id="patch_4">
        <path
           id="path15"
           style="fill:#404040;stroke:#404040;stroke-linejoin:miter"
           d="m 257.9837,304.35339 c -3.70596,16.71648 -12.10861,32.03249 -24.21594,44.13982 -12.10732,12.10732 -27.42334,20.50998 -44.13981,24.21593 l -1.62256,-7.31887 c 13.38019,-2.96631 25.81217,-9.222 36.16767,-18.1993 10.35549,-8.97731 18.31145,-20.39618 23.14581,-33.22027 l -3.57757,-1.05293 z"
           clip-path="url(#pba31f2b3f1)" />
      </g>
      <g
         id="patch_5">
        <path
           id="path18"
           style="stroke:#000000;stroke-linejoin:miter"
           d="m 203.48833,376.46105 c 15.39746,-5.60409 29.13573,-15.00197 39.93955,-27.32127 10.80381,-12.3193 18.32819,-27.16665 21.87468,-43.16384 l -7.31886,-1.62255 c -3.70596,16.71648 -12.10861,32.03249 -24.21594,44.13982 -12.10732,12.10732 -27.42334,20.50998 -44.13981,24.21593 l 14.91415,7.33229 z"
           clip-path="url(#pba31f2b3f1)" />
      </g>
      <g
         id="patch_6">
        <path
           id="path21"
           style="fill:#404040;stroke:#404040;stroke-linejoin:miter"
           d="M 150.68666,372.70914 C 133.97018,369.00319 118.65417,360.60053 106.54684,348.49321 94.439518,336.38588 86.036865,321.06987 82.330911,304.35339 l 7.318866,-1.62255 c 2.966316,13.38018 9.222,25.81217 18.199303,36.16766 8.97731,10.3555 20.39618,18.31145 33.22027,23.14581 l 1.05293,-3.57756 z"
           clip-path="url(#pba31f2b3f1)" />
      </g>
      <g
         id="patch_7">
        <path
           id="path24"
           style="stroke:#000000;stroke-linejoin:miter"
           d="m 78.579001,318.21378 c 5.60409,15.39746 15.001972,29.13573 27.321269,39.93954 12.3193,10.80381 27.16665,18.3282 43.16384,21.87469 l 1.62255,-7.31887 C 133.97018,369.00319 118.65417,360.60053 106.54684,348.49321 94.439518,336.38588 86.036865,321.06987 82.330911,304.35339 l -7.332285,14.91415 z"
           clip-path="url(#pba31f2b3f1)" />
      </g>
      <g
         id="patch_8">
        <path
           id="path27"
           style="fill:#404040;stroke:#404040;stroke-linejoin:miter"
           d="m 82.330911,265.41211 c 3.705954,-16.71648 12.108607,-32.0325 24.215929,-44.13982 12.10733,-12.10733 27.42334,-20.50998 44.13982,-24.21593 l 1.62255,7.31886 c -13.38018,2.96632 -25.81216,9.222 -36.16766,18.19931 -10.3555,8.9773 -18.311453,20.39617 -23.145811,33.22026 l 3.577564,1.05294 z"
           clip-path="url(#pba31f2b3f1)" />
      </g>
      <g
         id="patch_9">
        <path
           id="path30"
           style="stroke:#000000;stroke-linejoin:miter"
           d="m 136.82627,193.30445 c -15.39745,5.60409 -29.13573,15.00197 -39.939539,27.32127 -10.803812,12.31929 -18.328196,27.16665 -21.874686,43.16383 l 7.318866,1.62256 c 3.705954,-16.71648 12.108607,-32.0325 24.215929,-44.13982 12.10733,-12.10733 27.42334,-20.50998 44.13982,-24.21593 l -14.91415,-7.33229 z"
           clip-path="url(#pba31f2b3f1)" />
      </g>
      <g
         id="patch_10">
        <path
           id="path33"
           style="fill:#404040;stroke:#404040;stroke-linejoin:miter"
           d="m 439.71334,197.05636 c 16.71648,3.70595 32.03249,12.1086 44.13982,24.21593 12.10732,12.10732 20.50997,27.42334 24.21593,44.13982 l -7.31887,1.62255 c -2.96631,-13.38018 -9.222,-25.81217 -18.1993,-36.16767 -8.97731,-10.35549 -20.39618,-18.31145 -33.22027,-23.14581 l -1.05293,3.57757 z"
           clip-path="url(#pba31f2b3f1)" />
      </g>
      <g
         id="patch_11">
        <path
           id="path36"
           style="stroke:#000000;stroke-linejoin:miter"
           d="m 511.821,251.55172 c -5.60409,-15.39746 -15.00197,-29.13573 -27.32127,-39.93954 -12.3193,-10.80382 -27.16665,-18.3282 -43.16384,-21.87469 l -1.62255,7.31887 c 16.71648,3.70595 32.03249,12.1086 44.13982,24.21593 12.10732,12.10732 20.50997,27.42334 24.21593,44.13982 l 7.33228,-14.91415 z"
           clip-path="url(#pba31f2b3f1)" />
      </g>
      <g
         id="patch_12">
        <path
           id="path39"
           style="fill:#404040;stroke:#404040;stroke-linejoin:miter"
           d="m 508.06909,304.35339 c -3.70596,16.71648 -12.10861,32.03249 -24.21593,44.13982 -12.10733,12.10732 -27.42334,20.50998 -44.13982,24.21593 l -1.62256,-7.31887 c 13.38019,-2.96631 25.81217,-9.222 36.16767,-18.1993 10.3555,-8.97731 18.31145,-20.39618 23.14581,-33.22027 l -3.57756,-1.05293 z"
           clip-path="url(#pba31f2b3f1)" />
      </g>
      <g
         id="patch_13">
        <path
           id="path42"
           style="stroke:#000000;stroke-linejoin:miter"
           d="m 453.57373,376.46105 c 15.39745,-5.60409 29.13573,-15.00197 39.93954,-27.32127 10.80381,-12.3193 18.3282,-27.16665 21.87469,-43.16384 l -7.31887,-1.62255 c -3.70596,16.71648 -12.10861,32.03249 -24.21593,44.13982 -12.10733,12.10732 -27.42334,20.50998 -44.13982,24.21593 l 14.91415,7.33229 z"
           clip-path="url(#pba31f2b3f1)" />
      </g>
      <g
         id="patch_14">
        <path
           id="path45"
           style="fill:#404040;stroke:#404040;stroke-linejoin:miter"
           d="m 400.77205,372.70914 c -16.71647,-3.70595 -32.03249,-12.10861 -44.13981,-24.21593 -12.10733,-12.10733 -20.50998,-27.42334 -24.21594,-44.13982 l 7.31887,-1.62255 c 2.96631,13.38018 9.222,25.81217 18.19931,36.16766 8.9773,10.3555 20.39617,18.31145 33.22026,23.14581 l 1.05294,-3.57756 z"
           clip-path="url(#pba31f2b3f1)" />
      </g>
      <g
         id="patch_15">
        <path
           id="path48"
           style="stroke:#000000;stroke-linejoin:miter"
           d="m 328.66439,318.21378 c 5.60409,15.39746 15.00197,29.13573 27.32127,39.93954 12.3193,10.80381 27.16666,18.3282 43.16384,21.87469 l 1.62255,-7.31887 c -16.71647,-3.70595 -32.03249,-12.10861 -44.13981,-24.21593 -12.10733,-12.10733 -20.50998,-27.42334 -24.21594,-44.13982 l -7.33228,14.91415 z"
           clip-path="url(#pba31f2b3f1)" />
      </g>
      <g
         id="patch_16">
        <path
           id="path51"
           style="fill:#404040;stroke:#404040;stroke-linejoin:miter"
           d="m 332.4163,265.41211 c 3.70596,-16.71648 12.10861,-32.0325 24.21594,-44.13982 12.10732,-12.10733 27.42334,-20.50998 44.13981,-24.21593 l 1.62256,7.31886 c -13.38019,2.96632 -25.81217,9.222 -36.16767,18.19931 -10.35549,8.9773 -18.31145,20.39617 -23.14581,33.22026 l 3.57757,1.05294 z"
           clip-path="url(#pba31f2b3f1)" />
      </g>
      <g
         id="patch_17">
        <path
           id="path54"
           style="stroke:#000000;stroke-linejoin:miter"
           d="m 386.91167,193.30445 c -15.39746,5.60409 -29.13573,15.00197 -39.93955,27.32127 -10.80381,12.31929 -18.32819,27.16665 -21.87468,43.16383 l 7.31886,1.62256 c 3.70596,-16.71648 12.10861,-32.0325 24.21594,-44.13982 12.10732,-12.10733 27.42334,-20.50998 44.13981,-24.21593 l -14.91415,-7.33229 z"
           clip-path="url(#pba31f2b3f1)" />
      </g>
    </g>
  </g>
  <defs
     id="defs62">
    <clipPath
       id="pba31f2b3f1">
      <rect
         id="rect59"
         y="186.72545"
         x="72"
         width="446.39999"
         height="208.30911" />
    </clipPath>
  </defs>
</svg>
