<?xml version="1.0" encoding="UTF-8" standalone="no"?>
<svg
   xmlns:dc="http://purl.org/dc/elements/1.1/"
   xmlns:cc="http://creativecommons.org/ns#"
   xmlns:rdf="http://www.w3.org/1999/02/22-rdf-syntax-ns#"
   xmlns:svg="http://www.w3.org/2000/svg"
   xmlns="http://www.w3.org/2000/svg"
   id="svg132"
   width="454.3501pt"
   viewBox="0 0 454.3501 272.61011"
   version="1.1"
   height="272.61011pt">
  <metadata
     id="metadata136">
    <rdf:RDF>
      <cc:Work
         rdf:about="">
        <dc:format>image/svg+xml</dc:format>
        <dc:type
           rdf:resource="http://purl.org/dc/dcmitype/StillImage" />
        <dc:title></dc:title>
      </cc:Work>
    </rdf:RDF>
  </metadata>
  <defs
     id="defs72">
    <style
       id="style70"
       type="text/css">
*{stroke-linecap:butt;stroke-linejoin:round;}
  </style>
    <clipPath
       id="clipPath140"
       clipPathUnits="userSpaceOnUse">
      <rect
         y="147.91501"
         x="68.371254"
         height="272.61011"
         width="454.3501"
         id="rect142"
         style="fill:#000000;fill-opacity:0;stroke-width:0.9087" />
    </clipPath>
  </defs>
  <g
     transform="translate(-68.371254,-147.91501)"
     clip-path="url(#clipPath140)"
     id="figure_1">
    <g
       id="patch_1">
      <path
         id="path74"
         style="fill:none"
         d="M 0,576 H 576 V 0 H 0 Z" />
    </g>
    <g
       id="axes_1">
      <g
         id="patch_2">
        <path
           id="path77"
           style="fill:#404040;stroke:#404040;stroke-linejoin:miter"
           d="m 211.56573,179.55811 c 19.83412,4.39712 38.0066,14.36688 52.37196,28.73224 14.36536,14.36536 24.33512,32.53783 28.73223,52.37196 l -8.68384,1.92516 c -3.51954,-15.87561 -10.94191,-30.62618 -21.5935,-42.91299 -10.65159,-12.28681 -24.20009,-21.72656 -39.4159,-27.46254 l -1.24931,4.24479 z"
           clip-path="url(#p12fa2b07a4)" />
      </g>
      <g
         id="patch_3">
        <path
           id="path80"
           style="stroke:#000000;stroke-linejoin:miter"
           d="m 297.12157,244.21694 c -6.64926,-18.26911 -17.79986,-34.56959 -32.41672,-47.38833 -14.61687,-12.81874 -32.23328,-21.74643 -51.21396,-25.95435 l -1.92516,8.68385 c 19.83412,4.39712 38.0066,14.36688 52.37196,28.73224 14.36536,14.36536 24.33512,32.53783 28.73223,52.37196 l 8.69977,-17.69566 z"
           clip-path="url(#p12fa2b07a4)" />
      </g>
      <g
         id="patch_4">
        <path
           id="path83"
           style="fill:#404040;stroke:#404040;stroke-linejoin:miter"
           d="m 292.66992,306.8662 c -4.39711,19.83412 -14.36687,38.00659 -28.73223,52.37195 -14.36536,14.36537 -32.53784,24.33513 -52.37196,28.73224 l -1.92516,-8.68384 c 15.8756,-3.51954 30.62617,-10.94192 42.91298,-21.5935 12.28682,-10.65159 21.72657,-24.2001 27.46254,-39.4159 l -4.24478,-1.24931 z"
           clip-path="url(#p12fa2b07a4)" />
      </g>
      <g
         id="patch_5">
        <path
           id="path86"
           style="stroke:#000000;stroke-linejoin:miter"
           d="m 228.0111,392.42204 c 18.2691,-6.64926 34.56959,-17.79986 47.38832,-32.41672 12.81874,-14.61687 21.74643,-32.23328 25.95435,-51.21396 l -8.68385,-1.92516 c -4.39711,19.83412 -14.36687,38.00659 -28.73223,52.37195 -14.36536,14.36537 -32.53784,24.33513 -52.37196,28.73224 l 17.69566,8.69977 z"
           clip-path="url(#p12fa2b07a4)" />
      </g>
      <g
         id="patch_6">
        <path
           id="path89"
           style="fill:#404040;stroke:#404040;stroke-linejoin:miter"
           d="M 165.36184,387.97039 C 145.52771,383.57328 127.35524,373.60352 112.98988,359.23815 98.624521,344.87279 88.654761,326.70032 84.257641,306.8662 l 8.683845,-1.92516 c 3.519538,15.8756 10.941914,30.62617 21.593504,42.91298 10.65159,12.28681 24.20009,21.72657 39.41589,27.46254 l 1.24931,-4.24478 z"
           clip-path="url(#p12fa2b07a4)" />
      </g>
      <g
         id="patch_7">
        <path
           id="path92"
           style="stroke:#000000;stroke-linejoin:miter"
           d="m 79.805994,323.31157 c 6.649262,18.2691 17.799861,34.56958 32.416726,47.38832 14.61687,12.81874 32.23327,21.74643 51.21396,25.95435 l 1.92516,-8.68385 C 145.52771,383.57328 127.35524,373.60352 112.98988,359.23815 98.624521,344.87279 88.654761,326.70032 84.257641,306.8662 l -8.699767,17.69566 z"
           clip-path="url(#p12fa2b07a4)" />
      </g>
      <g
         id="patch_8">
        <path
           id="path95"
           style="fill:#404040;stroke:#404040;stroke-linejoin:miter"
           d="m 84.257641,260.66231 c 4.39712,-19.83413 14.36688,-38.0066 28.732239,-52.37196 14.36536,-14.36536 32.53783,-24.33512 52.37196,-28.73224 l 1.92516,8.68384 c -15.87561,3.51954 -30.62618,10.94192 -42.91299,21.59351 -12.28681,10.65158 -21.72656,24.20009 -27.462535,39.41589 l 4.244785,1.24931 z"
           clip-path="url(#p12fa2b07a4)" />
      </g>
      <g
         id="patch_9">
        <path
           id="path98"
           style="stroke:#000000;stroke-linejoin:miter"
           d="m 148.91647,175.10646 c -18.26911,6.64926 -34.56959,17.79986 -47.38833,32.41673 -12.818736,14.61686 -21.746428,32.23327 -25.954344,51.21395 l 8.683845,1.92517 c 4.39712,-19.83413 14.36688,-38.0066 28.732239,-52.37196 14.36536,-14.36536 32.53783,-24.33512 52.37196,-28.73224 l -17.69566,-8.69977 z"
           clip-path="url(#p12fa2b07a4)" />
      </g>
      <g
         id="patch_10">
        <path
           id="path101"
           style="fill:#404040;stroke:#404040;stroke-linejoin:miter"
           d="m 425.03816,179.55811 c 19.83413,4.39712 38.0066,14.36688 52.37196,28.73224 14.36536,14.36536 24.33512,32.53783 28.73224,52.37196 l -8.68385,1.92516 c -3.51953,-15.87561 -10.94191,-30.62618 -21.5935,-42.91299 -10.65159,-12.28681 -24.20009,-21.72656 -39.41589,-27.46254 l -1.24931,4.24479 z"
           clip-path="url(#p12fa2b07a4)" />
      </g>
      <g
         id="patch_11">
        <path
           id="path104"
           style="stroke:#000000;stroke-linejoin:miter"
           d="M 510.59401,244.21694 C 503.94474,225.94783 492.79415,209.64735 478.17728,196.82861 463.56041,184.00987 445.944,175.08218 426.96332,170.87426 l -1.92516,8.68385 c 19.83413,4.39712 38.0066,14.36688 52.37196,28.73224 14.36536,14.36536 24.33512,32.53783 28.73224,52.37196 l 8.69977,-17.69566 z"
           clip-path="url(#p12fa2b07a4)" />
      </g>
      <g
         id="patch_12">
        <path
           id="path107"
           style="fill:#404040;stroke:#404040;stroke-linejoin:miter"
           d="m 506.14236,306.8662 c -4.39712,19.83412 -14.36688,38.00659 -28.73224,52.37195 -14.36536,14.36537 -32.53783,24.33513 -52.37196,28.73224 l -1.92516,-8.68384 c 15.87561,-3.51954 30.62617,-10.94192 42.91299,-21.5935 12.28681,-10.65159 21.72656,-24.2001 27.46253,-39.4159 l -4.24478,-1.24931 z"
           clip-path="url(#p12fa2b07a4)" />
      </g>
      <g
         id="patch_13">
        <path
           id="path110"
           style="stroke:#000000;stroke-linejoin:miter"
           d="m 441.48353,392.42204 c 18.26911,-6.64926 34.56959,-17.79986 47.38833,-32.41672 12.81874,-14.61687 21.74643,-32.23328 25.95434,-51.21396 l -8.68384,-1.92516 c -4.39712,19.83412 -14.36688,38.00659 -28.73224,52.37195 -14.36536,14.36537 -32.53783,24.33513 -52.37196,28.73224 l 17.69566,8.69977 z"
           clip-path="url(#p12fa2b07a4)" />
      </g>
      <g
         id="patch_14">
        <path
           id="path113"
           style="fill:#404040;stroke:#404040;stroke-linejoin:miter"
           d="m 378.83427,387.97039 c -19.83412,-4.39711 -38.0066,-14.36687 -52.37196,-28.73224 -14.36536,-14.36536 -24.33512,-32.53783 -28.73224,-52.37195 l 8.68385,-1.92516 c 3.51954,15.8756 10.94192,30.62617 21.5935,42.91298 10.65159,12.28681 24.20009,21.72657 39.4159,27.46254 l 1.2493,-4.24478 z"
           clip-path="url(#p12fa2b07a4)" />
      </g>
      <g
         id="patch_15">
        <path
           id="path116"
           style="stroke:#000000;stroke-linejoin:miter"
           d="m 293.27843,323.31157 c 6.64926,18.2691 17.79986,34.56958 32.41672,47.38832 14.61687,12.81874 32.23328,21.74643 51.21396,25.95435 l 1.92516,-8.68385 c -19.83412,-4.39711 -38.0066,-14.36687 -52.37196,-28.73224 -14.36536,-14.36536 -24.33512,-32.53783 -28.73224,-52.37195 l -8.69976,17.69566 z"
           clip-path="url(#p12fa2b07a4)" />
      </g>
      <g
         id="patch_16">
        <path
           id="path119"
           style="fill:#404040;stroke:#404040;stroke-linejoin:miter"
           d="m 297.73007,260.66231 c 4.39712,-19.83413 14.36688,-38.0066 28.73224,-52.37196 14.36536,-14.36536 32.53784,-24.33512 52.37196,-28.73224 l 1.92516,8.68384 c -15.8756,3.51954 -30.62617,10.94192 -42.91298,21.59351 -12.28681,10.65158 -21.72657,24.20009 -27.46254,39.41589 l 4.24478,1.24931 z"
           clip-path="url(#p12fa2b07a4)" />
      </g>
      <g
         id="patch_17">
        <path
           id="path122"
           style="stroke:#000000;stroke-linejoin:miter"
           d="m 362.3889,175.10646 c -18.2691,6.64926 -34.56958,17.79986 -47.38832,32.41673 -12.81874,14.61686 -21.74644,32.23327 -25.95435,51.21395 l 8.68384,1.92517 c 4.39712,-19.83413 14.36688,-38.0066 28.73224,-52.37196 14.36536,-14.36536 32.53784,-24.33512 52.37196,-28.73224 l -17.69566,-8.69977 z"
           clip-path="url(#p12fa2b07a4)" />
      </g>
    </g>
  </g>
  <defs
     id="defs130">
    <clipPath
       id="p12fa2b07a4">
      <rect
         id="rect127"
         y="167.30048"
         x="72"
         width="446.39999"
         height="247.15906" />
    </clipPath>
  </defs>
</svg>
